<?xml version="1.0" standalone="no"?><!DOCTYPE svg PUBLIC "-//W3C//DTD SVG 1.1//EN" "http://www.w3.org/Graphics/SVG/1.1/DTD/svg11.dtd"><svg t="1771792215849" class="icon" viewBox="0 0 1024 1024" version="1.1" xmlns="http://www.w3.org/2000/svg" p-id="34823" data-darkreader-inline-fill="" xmlns:xlink="http://www.w3.org/1999/xlink" width="200" height="200"><path d="M512.768 148.704a32 32 0 1 1 0 64h-166.048a134.176 134.176 0 0 0-134.016 134.336V721.28a134.176 134.176 0 0 0 134.016 134.336h332.064A134.176 134.176 0 0 0 812.8 721.28v-187.136a32 32 0 1 1 64 0v187.136a198.176 198.176 0 0 1-198.016 198.336H346.72a198.176 198.176 0 0 1-198.016-198.336V347.04a198.176 198.176 0 0 1 198.016-198.336h166.048z" fill="#191919" p-id="34824" style="--darkreader-inline-fill: var(--darkreader-background-191919, #131415);" data-darkreader-inline-fill=""></path><path d="M783.936 217.28a32 32 0 1 1 45.312 45.184L495.232 597.12a32 32 0 0 1-45.312-45.216L783.936 217.28z" fill="#191919" p-id="34825" style="--darkreader-inline-fill: var(--darkreader-background-191919, #131415);" data-darkreader-inline-fill=""></path></svg>